# xmcd
#
# Track frame offsets: 
#        150
#        7787
#        29830
#        47425
#        69887
#        97195
#        114115
#        129140
#        144950
#        158647
#        188870
#        200017
#        206337
#        220587
#        234597
#        248522
#        269720
#        283867
#
# Disc length: 3984 seconds
#
# Revision: 0
# Processed by: cddbd v1.5.2PL0 Copyright (c) Steve Scherf et al.
# Submitted via: ExactAudioCopy v0.99pb5
#
DISCID=f50f8e12
DTITLE=The Moments - Those Sexy Moments
DYEAR=1995
DGENRE=Blues
TTITLE0=Yogi's Theme
TTITLE1=Sweet Sweet Lady
TTITLE2=You've Come A Long Way
TTITLE3=Give Me Some More
TTITLE4=Seven Days
TTITLE5=Baby I Don't Like You
TTITLE6=How Can I Love You
TTITLE7=Music In Your Eyes
TTITLE8=Look At Me
TTITLE9=Sexy Mama
TTITLE10=Next Time I See You
TTITLE11=Yogi Says Goodbye
TTITLE12=Girls
TTITLE13=Look At Me (French)
TTITLE14=Dolly My Love
TTITLE15=I Feel So Good Again
TTITLE16=Look At Me (I'm In Love)
TTITLE17=Girls (French)
EXTD=
EXTT0=
EXTT1=
EXTT2=
EXTT3=
EXTT4=
EXTT5=
EXTT6=
EXTT7=
EXTT8=
EXTT9=
EXTT10=
EXTT11=
EXTT12=
EXTT13=
EXTT14=
EXTT15=
EXTT16=
EXTT17=
PLAYORDER=
